<mxfile host="app.diagrams.net" modified="2023-07-25T04:45:32.624Z" agent="Mozilla/5.0 (Windows NT 10.0; Win64; x64) AppleWebKit/537.36 (KHTML, like Gecko) Chrome/114.0.0.0 Safari/537.36 AtContent/94.5.6734.35" etag="oto-EtMWMfkIoVPP3IhC" version="21.6.2" type="device">
  <diagram name="Page-1" id="2cc2dc42-3aac-f2a9-1cec-7a8b7cbee084">
    <mxGraphModel dx="1100" dy="1111" grid="1" gridSize="10" guides="1" tooltips="1" connect="1" arrows="1" fold="1" page="1" pageScale="1" pageWidth="1100" pageHeight="850" background="none" math="0" shadow="0">
      <root>
        <mxCell id="0" />
        <mxCell id="1" parent="0" />
        <mxCell id="7026571954dc6520-1" value="" style="strokeWidth=1;shadow=0;dashed=0;align=center;html=1;shape=mxgraph.mockup.containers.browserWindow;rSize=0;strokeColor=#666666;mainText=,;recursiveResize=0;rounded=0;labelBackgroundColor=none;fontFamily=Verdana;fontSize=12" parent="1" vertex="1">
          <mxGeometry x="30" y="30" width="1050" height="730" as="geometry" />
        </mxCell>
        <mxCell id="7026571954dc6520-2" value="Page 1" style="strokeWidth=1;shadow=0;dashed=0;align=center;html=1;shape=mxgraph.mockup.containers.anchor;fontSize=17;fontColor=#666666;align=left;" parent="7026571954dc6520-1" vertex="1">
          <mxGeometry x="60" y="12" width="110" height="26" as="geometry" />
        </mxCell>
        <mxCell id="7026571954dc6520-3" value="https://www.default.com" style="strokeWidth=1;shadow=0;dashed=0;align=center;html=1;shape=mxgraph.mockup.containers.anchor;rSize=0;fontSize=17;fontColor=#666666;align=left;" parent="7026571954dc6520-1" vertex="1">
          <mxGeometry x="130" y="60" width="250" height="26" as="geometry" />
        </mxCell>
        <mxCell id="uhM66o-gRaHObOTEZNcO-1" value="" style="verticalLabelPosition=bottom;shadow=0;dashed=0;align=center;html=1;verticalAlign=top;strokeWidth=1;shape=mxgraph.mockup.graphics.simpleIcon;strokeColor=#999999;fillColor=#ffffff;rounded=0;labelBackgroundColor=none;fontFamily=Verdana;fontSize=12;fontColor=#000000;" vertex="1" parent="7026571954dc6520-1">
          <mxGeometry y="110" width="1050" height="620" as="geometry" />
        </mxCell>
        <mxCell id="uhM66o-gRaHObOTEZNcO-2" value="" style="rounded=1;whiteSpace=wrap;html=1;arcSize=6;" vertex="1" parent="7026571954dc6520-1">
          <mxGeometry x="270" y="280" width="500" height="250" as="geometry" />
        </mxCell>
        <mxCell id="uhM66o-gRaHObOTEZNcO-3" value="&lt;h1&gt;To-Do List&lt;/h1&gt;" style="text;html=1;strokeColor=none;fillColor=none;spacing=5;spacingTop=-20;whiteSpace=wrap;overflow=hidden;rounded=0;" vertex="1" parent="7026571954dc6520-1">
          <mxGeometry x="300" y="345" width="190" height="45" as="geometry" />
        </mxCell>
        <mxCell id="uhM66o-gRaHObOTEZNcO-4" value="" style="verticalLabelPosition=bottom;shadow=0;dashed=0;align=center;html=1;verticalAlign=top;strokeWidth=1;shape=mxgraph.mockup.graphics.simpleIcon;strokeColor=#999999;" vertex="1" parent="7026571954dc6520-1">
          <mxGeometry x="450" y="345" width="25" height="25" as="geometry" />
        </mxCell>
        <mxCell id="uhM66o-gRaHObOTEZNcO-6" value="" style="rounded=1;whiteSpace=wrap;html=1;arcSize=45;" vertex="1" parent="7026571954dc6520-1">
          <mxGeometry x="300" y="420" width="450" height="60" as="geometry" />
        </mxCell>
        <mxCell id="uhM66o-gRaHObOTEZNcO-7" value="Add your task" style="text;html=1;strokeColor=none;fillColor=none;align=center;verticalAlign=middle;whiteSpace=wrap;rounded=0;" vertex="1" parent="7026571954dc6520-1">
          <mxGeometry x="310" y="435" width="150" height="30" as="geometry" />
        </mxCell>
        <mxCell id="uhM66o-gRaHObOTEZNcO-9" value="" style="rounded=1;whiteSpace=wrap;html=1;arcSize=45;" vertex="1" parent="7026571954dc6520-1">
          <mxGeometry x="600" y="420" width="150" height="60" as="geometry" />
        </mxCell>
        <mxCell id="uhM66o-gRaHObOTEZNcO-10" value="Add" style="text;html=1;strokeColor=none;fillColor=none;align=center;verticalAlign=middle;whiteSpace=wrap;rounded=0;" vertex="1" parent="7026571954dc6520-1">
          <mxGeometry x="600" y="435" width="150" height="30" as="geometry" />
        </mxCell>
        <mxCell id="uhM66o-gRaHObOTEZNcO-11" value="" style="verticalLabelPosition=bottom;shadow=0;dashed=0;align=center;html=1;verticalAlign=top;strokeWidth=1;shape=mxgraph.mockup.graphics.simpleIcon;strokeColor=#999999;" vertex="1" parent="7026571954dc6520-1">
          <mxGeometry x="20" y="130" width="240" height="60" as="geometry" />
        </mxCell>
        <mxCell id="uhM66o-gRaHObOTEZNcO-12" value="MyTasks" style="rounded=1;whiteSpace=wrap;html=1;" vertex="1" parent="7026571954dc6520-1">
          <mxGeometry x="640" y="140" width="120" height="40" as="geometry" />
        </mxCell>
        <mxCell id="uhM66o-gRaHObOTEZNcO-26" value="Sign up" style="rounded=1;whiteSpace=wrap;html=1;arcSize=38;" vertex="1" parent="7026571954dc6520-1">
          <mxGeometry x="900" y="140" width="120" height="40" as="geometry" />
        </mxCell>
        <mxCell id="uhM66o-gRaHObOTEZNcO-27" value="Login" style="rounded=1;whiteSpace=wrap;html=1;arcSize=38;" vertex="1" parent="7026571954dc6520-1">
          <mxGeometry x="770" y="140" width="120" height="40" as="geometry" />
        </mxCell>
      </root>
    </mxGraphModel>
  </diagram>
</mxfile>
